<svg xmlns="http://www.w3.org/2000/svg" width="52" height="440" viewBox="0 0 52 440">
  <metadata><?xpacket begin="﻿" id="W5M0MpCehiHzreSzNTczkc9d"?>
<x:xmpmeta xmlns:x="adobe:ns:meta/" x:xmptk="Adobe XMP Core 5.6-c138 79.159824, 2016/09/14-01:09:01        ">
   <rdf:RDF xmlns:rdf="http://www.w3.org/1999/02/22-rdf-syntax-ns#">
      <rdf:Description rdf:about=""/>
   </rdf:RDF>
</x:xmpmeta>
                                                                                                    
                                                                                                    
                                                                                                    
                                                                                                    
                                                                                                    
                                                                                                    
                                                                                                    
                                                                                                    
                                                                                                    
                                                                                                    
                                                                                                    
                                                                                                    
                                                                                                    
                                                                                                    
                                                                                                    
                                                                                                    
                                                                                                    
                                                                                                    
                                                                                                    
                                                                                                    
                           
<?xpacket end="w"?></metadata>
<defs>
    <style>
      .cls-1 {
        fill: #3b93e5;
      }

      .cls-1, .cls-2, .cls-3 {
        fill-rule: evenodd;
      }

      .cls-2 {
        fill: #9b9b9b;
      }

      .cls-3 {
        fill: #fff;
      }
    </style>
  </defs>
  <path id="flag" class="cls-1" d="M22.518,204.392a41.069,41.069,0,0,0-5.629-.529,5.429,5.429,0,0,1-3.606-1.058v7.807h-1.5V196.649h1.5v0.863a5.429,5.429,0,0,0,3.606,1.058,41.032,41.032,0,0,1,5.629.529l-1.859,2.647ZM6.144,209.974c0,0.871,3.266,1.577,6.419,1.577s6.419-.706,6.419-1.577c0-.623-1.671-1.16-3.774-1.416l0.092-.889c3.508,0.318,6.044,1.229,6.044,2.3,0,1.339-3.932,2.426-8.782,2.426s-8.782-1.087-8.782-2.426c0-1.069,2.5-1.973,5.971-2.3l0.092,0.89C7.776,208.827,6.144,209.358,6.144,209.974Z"/>
  <path id="map" class="cls-1" d="M17.52,257.938L13.134,260l-4.749-1.923L4,259.928l1.331-12.545L8.96,246l3.69,1.315,3.6-1.18,3.327,0.607L22,260Zm-8.28-11.156L8.631,256.994l4.379,2.169-0.231-11.032-0.011,0Zm9.826,0.649L16.414,247l0.959,9.811,3.566,1.725Z"/>
  <path id="map_拷贝" data-name="map 拷贝" class="cls-2" d="M43.52,257.938L39.134,260l-4.749-1.923L30,259.928l1.331-12.545L34.96,246l3.69,1.315,3.6-1.18,3.327,0.607L48,260Zm-8.28-11.156-0.609,10.212,4.379,2.169-0.231-11.032-0.011,0Zm9.826,0.649L42.414,247l0.959,9.811,3.566,1.725Z"/>
  <path id="flag_拷贝" data-name="flag 拷贝" class="cls-2" d="M48.518,204.392a41.069,41.069,0,0,0-5.629-.529,5.429,5.429,0,0,1-3.606-1.058v7.807h-1.5V196.649h1.5v0.863a5.429,5.429,0,0,0,3.606,1.058,41.032,41.032,0,0,1,5.629.529l-1.859,2.647Zm-16.374,5.582c0,0.871,3.266,1.577,6.419,1.577s6.419-.706,6.419-1.577c0-.623-1.671-1.16-3.774-1.416l0.092-.889c3.508,0.318,6.044,1.229,6.044,2.3,0,1.339-3.932,2.426-8.782,2.426s-8.782-1.087-8.782-2.426c0-1.069,2.5-1.973,5.971-2.3l0.092,0.89C33.776,208.827,32.144,209.358,32.144,209.974Z"/>
  <path id="形状_1" data-name="形状 1" class="cls-1" d="M21.651,222.409a1.467,1.467,0,0,0-1.073-.4H5.488a1.468,1.468,0,0,0-1.074.4A1.35,1.35,0,0,0,4,223.44v11.116a1.352,1.352,0,0,0,.417,1.031,1.472,1.472,0,0,0,1.074.4H20.518a1.472,1.472,0,0,0,1.074-.4,1.352,1.352,0,0,0,.417-1.031V223.44A1.957,1.957,0,0,0,21.651,222.409Zm-0.835,12.147a0.3,0.3,0,0,1-.119.229,0.461,0.461,0,0,1-.239.114H5.369a0.315,0.315,0,0,1-.239-0.114,0.431,0.431,0,0,1-.119-0.229V223.44a0.816,0.816,0,0,1,.119-0.229,0.241,0.241,0,0,1,.239-0.115H20.458a0.315,0.315,0,0,1,.239.115,0.428,0.428,0,0,1,.119.229v11.116Zm-9.96-4.069-1.491-1.432-3.042,2.922v1.776h13.3v-4.068L15.687,225.9l-4.831,4.583h0Zm-2.743-2.635a1.89,1.89,0,0,0,1.312-.516,1.748,1.748,0,0,0,0-2.521,1.7,1.7,0,0,0-1.312-.516,1.89,1.89,0,0,0-1.312.516,1.653,1.653,0,0,0-.537,1.261,1.742,1.742,0,0,0,.537,1.26,1.89,1.89,0,0,0,1.312.516h0Z"/>
  <path id="形状_1_拷贝" data-name="形状 1 拷贝" class="cls-2" d="M47.651,222.409a1.467,1.467,0,0,0-1.074-.4H31.488a1.468,1.468,0,0,0-1.074.4A1.35,1.35,0,0,0,30,223.44v11.116a1.352,1.352,0,0,0,.418,1.031,1.472,1.472,0,0,0,1.074.4H46.518a1.472,1.472,0,0,0,1.074-.4,1.352,1.352,0,0,0,.417-1.031V223.44A1.957,1.957,0,0,0,47.651,222.409Zm-0.835,12.147a0.3,0.3,0,0,1-.119.229,0.461,0.461,0,0,1-.239.114H31.369a0.315,0.315,0,0,1-.239-0.114,0.431,0.431,0,0,1-.119-0.229V223.44a0.816,0.816,0,0,1,.119-0.229,0.241,0.241,0,0,1,.239-0.115H46.458a0.315,0.315,0,0,1,.239.115,0.428,0.428,0,0,1,.119.229v11.116Zm-9.96-4.069-1.491-1.432-3.042,2.922v1.776h13.3v-4.068L41.687,225.9l-4.831,4.583h0Zm-2.743-2.635a1.89,1.89,0,0,0,1.312-.516,1.749,1.749,0,0,0,0-2.521,1.7,1.7,0,0,0-1.312-.516,1.889,1.889,0,0,0-1.312.516,1.653,1.653,0,0,0-.537,1.261,1.742,1.742,0,0,0,.537,1.26,1.889,1.889,0,0,0,1.312.516h0Z"/>
  <path id="素材天下网_www.sucaitianxia.com-_副本" data-name="素材天下网 www.sucaitianxia.com- 副本" class="cls-3" d="M6.4,23H19.6A4.388,4.388,0,0,0,24,18.625V7.25h0V5.937H20.48V2H2V18.625A4.388,4.388,0,0,0,6.4,23ZM22.68,7.25V17.312a4.338,4.338,0,0,1-1.1,2.884,4.33,4.33,0,0,1-1.1-2.884V7.25h2.2ZM3.32,3.312H19.16V18.625a4.33,4.33,0,0,0,.924,2.675,4.4,4.4,0,0,1-1.8.388H7.72a4.388,4.388,0,0,1-4.4-4.375v-14ZM17.4,16H13v1.313h4.4V16Zm0-2.187H13v1.312h4.4V13.812Zm0-2.187H13v1.313h4.4V11.625Zm0-5.688H5.52v1.75H17.4V5.937Zm0,3.5H13V10.75h4.4V9.437Zm-5.72,0H5.52v7.875h6.16V9.437Z"/>
  <path id="your_location" data-name="your location" class="cls-3" d="M13,48C6.925,48,2,46.452,2,44.542c0-1.522,3.133-2.812,7.479-3.274L9.6,42.537C7,42.908,4.96,43.665,4.96,44.542c0,1.241,4.091,2.248,8.04,2.248s8.04-1.006,8.04-2.248c0-.887-2.093-1.652-4.727-2.017l0.116-1.267C20.823,41.711,24,43.009,24,44.542,24,46.452,19.075,48,13,48Zm1.384-2.632H11.527l-0.6-6.916H8.691V32.959c0-1.514,3.915-1.363,4.265-1.346,0.353-.017,4.294-0.168,4.294,1.346v5.494H14.986ZM12.931,30.615A2.306,2.306,0,1,1,15.3,28.31,2.339,2.339,0,0,1,12.931,30.615Z"/>
  <path id="new" class="cls-3" d="M19.814,66.544L24,64.286,21.741,60.1,23.1,55.544l-4.556-1.363L16.288,50,12.1,52.255,7.547,50.893,6.184,55.449,2,57.707l2.258,4.185L2.895,66.449l4.556,1.362L9.71,72l4.185-2.258L18.451,71.1Zm-10.4-7.282H8.308V62.03L6.767,59.263H5.278v4.831H6.387V60.726l1.862,3.367H9.417V59.263Zm4.348,4.831V63.172H11.7v-1.22h1.9V61.031H11.7V60.184h2.06V59.263H10.5v4.831h3.267Zm6.01-4.831-0.7,3.241-0.769-3.241H17.1L16.291,62.5l-0.665-3.241H14.367l1.223,4.831h1.33l0.753-2.988,0.775,2.988h1.33L21,59.263H19.775Z"/>
  <path id="friends_list" data-name="friends list" class="cls-3" d="M19.258,90.48c-0.081-.251-0.624-1.966-2.106-1.966h-3.12l0.31-1.178a5.713,5.713,0,0,0,3.408-1.85h3.769a1.556,1.556,0,0,1,1.358,1.151L24,90.48H19.258Zm-0.569-6.043a3.859,3.859,0,0,1-.534-0.041A7.662,7.662,0,0,0,19.27,80.38c0-3.136-1.375-3.663-2.493-4.952-3.035,1.021,6.1-3.026,6.1,4.4A4.411,4.411,0,0,1,18.688,84.437Zm-0.7-3.674a5.527,5.527,0,0,1-5.247,5.77,5.8,5.8,0,0,1,0-11.539A5.527,5.527,0,0,1,17.991,80.762Zm-6.108-4.2c-1.608.631,0.361,2.883-3.164,4.2a4.24,4.24,0,0,0,4.025,4.426,4.24,4.24,0,0,0,4.025-4.426C14.719,78.9,11.277,79.762,11.883,76.562ZM8.9,75.319c-1.173,1.3-2.7,2.249-2.7,5.061a9.537,9.537,0,0,0,1.14,4.555c-0.026,0-.051,0-0.077,0-2.313,0-4.188-2.564-4.188-5.107C3.079,72.811,12.306,76.077,8.9,75.319ZM4.666,85.486H7.724a4.474,4.474,0,0,0,3.469,2l0.213,1.024H8.68c-1.482,0-1.983,1.715-2.056,1.966H1.995l1.346-3.843A1.5,1.5,0,0,1,4.666,85.486Zm4.819,3.5h6.8a1.949,1.949,0,0,1,1.7,1.442L19.4,95.007H6.138l1.687-4.579A1.878,1.878,0,0,1,9.485,88.986Z"/>
  <path id="BAR_GRAPH" data-name="BAR GRAPH" class="cls-3" d="M22.969,119H3.031A1.073,1.073,0,0,1,2,117.889V100.111A1.073,1.073,0,0,1,3.031,99a1.073,1.073,0,0,1,1.031,1.111v14.074h0v2.593H22.969A1.114,1.114,0,0,1,22.969,119Zm-2.406-3.333H18.5a1.074,1.074,0,0,1-1.031-1.111v-7.778a1.073,1.073,0,0,1,1.031-1.111h2.063a1.073,1.073,0,0,1,1.031,1.111v7.778A1.074,1.074,0,0,1,20.563,115.667Zm-5.844,0H12.656a1.074,1.074,0,0,1-1.031-1.111V102.333a1.074,1.074,0,0,1,1.031-1.111h2.063a1.074,1.074,0,0,1,1.031,1.111v12.223A1.074,1.074,0,0,1,14.719,115.667Zm-5.844,0H6.812a1.074,1.074,0,0,1-1.031-1.111v-2.223a1.074,1.074,0,0,1,1.031-1.111H8.875a1.074,1.074,0,0,1,1.031,1.111v2.223A1.074,1.074,0,0,1,8.875,115.667Z"/>
  <path id="hot" class="cls-3" d="M14.431,122c-0.813.527-3.627,9.777,0.6,9.7,0.437,0,3.532-.432,1.348-5.649C20.746,126.308,27.711,144,13.607,144c-15.04,0-8.2-15.057-7.136-14.994-0.187.891-.888,5.568,1.046,4.741,2.644-.827-0.52-4.359,1.6-8.176A6.64,6.64,0,0,1,14.431,122ZM11.181,134.84H9.831V137.1H8.067V134.84H6.744v5.879H8.067v-2.67H9.831v2.67h1.351V134.84Zm4.557,0.906a2.354,2.354,0,0,0-1.832-.733,2.343,2.343,0,0,0-1.832.736,3.342,3.342,0,0,0,0,4,2.338,2.338,0,0,0,1.832.739,2.357,2.357,0,0,0,1.832-.731A3.344,3.344,0,0,0,15.738,135.746Zm-0.758,2.8a1.74,1.74,0,0,1-.256.535,0.97,0.97,0,0,1-.371.312,1.022,1.022,0,0,1-.443.1,1.072,1.072,0,0,1-.436-0.093,0.977,0.977,0,0,1-.377-0.313,1.652,1.652,0,0,1-.256-0.535,3.427,3.427,0,0,1,.005-1.612A1.608,1.608,0,0,1,13.1,136.4a1.028,1.028,0,0,1,.374-0.309,1.085,1.085,0,0,1,.868.007,0.979,0.979,0,0,1,.376.309,1.661,1.661,0,0,1,.255.542A3.5,3.5,0,0,1,14.979,138.549Zm3.982,2.2V136.21h1.524v-1.342h-4.4v1.342h1.579v4.537h1.3Z"/>
  <path id="gps_" data-name="gps " class="cls-3" d="M13,186.127l-7.006,2.862L13,173.015l7.006,15.974Zm-0.055-10.255L8.107,186.9l4.838-1.977v-9.054Z"/>
  <path id="搜索" class="cls-3" d="M20.756,163.572l-3.548-3.553a0.82,0.82,0,0,0-.26-0.176,6.7,6.7,0,1,0-1.1,1.1,0.836,0.836,0,0,0,.176.259l3.548,3.553a0.837,0.837,0,1,0,1.184-1.183h0Zm-9.061-2.858a5.021,5.021,0,1,1,5.021-5.021,5.021,5.021,0,0,1-5.021,5.021h0Z"/>
</svg>
