<svg xmlns="http://www.w3.org/2000/svg" width="20" height="20" viewBox="0 0 20 20">
  <metadata><?xpacket begin="﻿" id="W5M0MpCehiHzreSzNTczkc9d"?>
<x:xmpmeta xmlns:x="adobe:ns:meta/" x:xmptk="Adobe XMP Core 5.6-c138 79.159824, 2016/09/14-01:09:01        ">
   <rdf:RDF xmlns:rdf="http://www.w3.org/1999/02/22-rdf-syntax-ns#">
      <rdf:Description rdf:about=""/>
   </rdf:RDF>
</x:xmpmeta>
                                                                                                    
                                                                                                    
                                                                                                    
                                                                                                    
                                                                                                    
                                                                                                    
                                                                                                    
                                                                                                    
                                                                                                    
                                                                                                    
                                                                                                    
                                                                                                    
                                                                                                    
                                                                                                    
                                                                                                    
                                                                                                    
                                                                                                    
                                                                                                    
                                                                                                    
                                                                                                    
                           
<?xpacket end="w"?></metadata>
<defs>
    <style>
      .cls-1 {
        fill: #519bf8;
        fill-rule: evenodd;
      }
    </style>
  </defs>
  <path id="形状_3" data-name="形状 3" class="cls-1" d="M1143.99,463.273a8.568,8.568,0,0,0-2.76-5.106,9.171,9.171,0,0,0-2.9-1.766,6.9,6.9,0,0,0,1.65-1.185,6.485,6.485,0,0,0,0-9.291,6.811,6.811,0,0,0-9.49,0,6.462,6.462,0,0,0,0,9.291,6.747,6.747,0,0,0,1.46,1.087,9.183,9.183,0,0,0-3.18,1.865,8.565,8.565,0,0,0-2.76,5.106,0.639,0.639,0,0,0,.61.722l0.04,0a0.656,0.656,0,0,0,.7-0.547,7.305,7.305,0,0,1,2.35-4.329,7.836,7.836,0,0,1,4.95-2.006c0.19,0.015.38,0.024,0.57,0.024,0.12,0,.24,0,0.36-0.009a7.82,7.82,0,0,1,4.7,1.991,7.305,7.305,0,0,1,2.35,4.329,0.657,0.657,0,0,0,.7.547l0.04,0a0.64,0.64,0,0,0,.61-0.723h0Zm-14.1-12.7a5.135,5.135,0,0,1,1.56-3.7,5.429,5.429,0,0,1,7.56,0,5.145,5.145,0,0,1,0,7.4,5.368,5.368,0,0,1-3.72,1.531c-0.1,0-.19,0-0.29,0a5.364,5.364,0,0,1-3.55-1.527,5.135,5.135,0,0,1-1.56-3.7h0Z" transform="translate(-1125 -444)"/>
</svg>
