<svg xmlns="http://www.w3.org/2000/svg" width="52" height="440" viewBox="0 0 52 440">
  <metadata><?xpacket begin="﻿" id="W5M0MpCehiHzreSzNTczkc9d"?>
<x:xmpmeta xmlns:x="adobe:ns:meta/" x:xmptk="Adobe XMP Core 5.6-c140 79.160451, 2017/05/06-01:08:21        ">
   <rdf:RDF xmlns:rdf="http://www.w3.org/1999/02/22-rdf-syntax-ns#">
      <rdf:Description rdf:about=""/>
   </rdf:RDF>
</x:xmpmeta>
                                                                                                    
                                                                                                    
                                                                                                    
                                                                                                    
                                                                                                    
                                                                                                    
                                                                                                    
                                                                                                    
                                                                                                    
                                                                                                    
                                                                                                    
                                                                                                    
                                                                                                    
                                                                                                    
                                                                                                    
                                                                                                    
                                                                                                    
                                                                                                    
                                                                                                    
                                                                                                    
                           
<?xpacket end="w"?></metadata>
<defs>
    <style>
      .cls-1 {
        fill: #fff;
      }

      .cls-1, .cls-2, .cls-3 {
        fill-rule: evenodd;
      }

      .cls-2 {
        fill: #3b93e5;
      }

      .cls-3 {
        fill: #9b9b9b;
      }
    </style>
  </defs>
  <path id="new" class="cls-1" d="M45.814,138.544L50,136.286,47.741,132.1l1.362-4.557-4.556-1.362L42.288,122,38.1,124.255l-4.556-1.362-1.362,4.556L28,129.707l2.258,4.186L28.9,138.449l4.556,1.362L35.71,144l4.185-2.259,4.557,1.363Zm-10.4-7.281h-1.11v2.767l-1.541-2.767H31.278v4.83h1.11v-3.367l1.862,3.367h1.168v-4.83Zm4.347,4.83v-0.921H37.7v-1.22h1.9v-0.921H37.7v-0.847h2.06v-0.921H36.5v4.83h3.267Zm6.01-4.83-0.7,3.241-0.769-3.241H43.1L42.291,134.5l-0.665-3.241H40.367l1.223,4.83h1.33l0.753-2.988,0.775,2.988h1.33L47,131.263H45.775Z"/>
  <path id="SHUFFLE" class="cls-1" d="M47.288,35.621a1.024,1.024,0,0,1-.729.3,1.04,1.04,0,0,1-.729-1.773l0.646-.65H45.866v0H43.888L33.2,44.273a1.024,1.024,0,0,1-.729.3H29.031a1.038,1.038,0,0,1,0-2.077H32.04L42.732,31.727h0a1.024,1.024,0,0,1,.729-0.3h3.012l-0.644-.648A1.04,1.04,0,0,1,46.559,29a1.024,1.024,0,0,1,.729.3l2.405,2.423a1.044,1.044,0,0,1,0,1.469Zm-11.51,1.645L32.04,33.5H29.031a1.039,1.039,0,0,1,0-2.077h3.436a1.024,1.024,0,0,1,.729.3l4.04,4.07ZM43.888,42.5h1.978v0h0.609l-0.646-.65a1.04,1.04,0,0,1,.729-1.773,1.024,1.024,0,0,1,.729.3L49.693,42.8a1.044,1.044,0,0,1,0,1.469l-2.405,2.423a1.024,1.024,0,0,1-.729.3,1.04,1.04,0,0,1-.729-1.773l0.644-.649H43.461a1.024,1.024,0,0,1-.729-0.3l-4.04-4.07,1.458-1.469Z"/>
  <path id="flag" class="cls-2" d="M22.518,204.392a41.069,41.069,0,0,0-5.629-.529,5.429,5.429,0,0,1-3.606-1.058v7.807h-1.5V196.649h1.5v0.863a5.429,5.429,0,0,0,3.606,1.058,41.032,41.032,0,0,1,5.629.529l-1.859,2.647ZM6.144,209.974c0,0.871,3.266,1.577,6.419,1.577s6.419-.706,6.419-1.577c0-.623-1.671-1.16-3.774-1.416l0.092-.889c3.508,0.318,6.044,1.229,6.044,2.3,0,1.339-3.932,2.426-8.782,2.426s-8.782-1.087-8.782-2.426c0-1.069,2.5-1.973,5.971-2.3l0.092,0.89C7.776,208.827,6.144,209.358,6.144,209.974Z"/>
  <path id="map" class="cls-2" d="M17.52,257.938L13.134,260l-4.749-1.923L4,259.928l1.331-12.545L8.96,246l3.69,1.315,3.6-1.18,3.327,0.607L22,260Zm-8.28-11.156L8.631,256.994l4.379,2.169-0.231-11.032-0.011,0Zm9.826,0.649L16.414,247l0.959,9.811,3.566,1.725Z"/>
  <path id="map_拷贝" data-name="map 拷贝" class="cls-3" d="M43.52,257.938L39.134,260l-4.749-1.923L30,259.928l1.331-12.545L34.96,246l3.69,1.315,3.6-1.18,3.327,0.607L48,260Zm-8.28-11.156-0.609,10.212,4.379,2.169-0.231-11.032-0.011,0Zm9.826,0.649L42.414,247l0.959,9.811,3.566,1.725Z"/>
  <path id="CALENDAR_OK" data-name="CALENDAR / OK" class="cls-1" d="M22.063,71H3.937A0.937,0.937,0,0,1,3,70.063V54.438A0.938,0.938,0,0,1,3.937,53.5H5.812v0.938a2.187,2.187,0,1,0,4.375,0V53.5h5.625v0.938a2.188,2.188,0,0,0,4.375,0V53.5h1.875a0.938,0.938,0,0,1,.938.938V70.063A0.938,0.938,0,0,1,22.063,71ZM21.125,58.5H4.875V69.125h16.25V58.5ZM9.875,62.875a0.934,0.934,0,0,1,.663.275l1.525,1.525,3.712-3.712A0.937,0.937,0,1,1,17.1,62.288l-4.375,4.375a0.937,0.937,0,0,1-1.326,0L9.212,64.475A0.938,0.938,0,0,1,9.875,62.875ZM18,55.375a0.937,0.937,0,0,1-.937-0.937v-2.5a0.938,0.938,0,1,1,1.875,0v2.5A0.937,0.937,0,0,1,18,55.375Zm-10,0a0.937,0.937,0,0,1-.937-0.937v-2.5a0.938,0.938,0,1,1,1.875,0v2.5A0.938,0.938,0,0,1,8,55.375Z"/>
  <path id="flag_拷贝" data-name="flag 拷贝" class="cls-3" d="M48.518,204.392a41.069,41.069,0,0,0-5.629-.529,5.429,5.429,0,0,1-3.606-1.058v7.807h-1.5V196.649h1.5v0.863a5.429,5.429,0,0,0,3.606,1.058,41.032,41.032,0,0,1,5.629.529l-1.859,2.647Zm-16.374,5.582c0,0.871,3.266,1.577,6.419,1.577s6.419-.706,6.419-1.577c0-.623-1.671-1.16-3.774-1.416l0.092-.889c3.508,0.318,6.044,1.229,6.044,2.3,0,1.339-3.932,2.426-8.782,2.426s-8.782-1.087-8.782-2.426c0-1.069,2.5-1.973,5.971-2.3l0.092,0.89C33.776,208.827,32.144,209.358,32.144,209.974Z"/>
  <path id="形状_1" data-name="形状 1" class="cls-2" d="M21.651,222.409a1.467,1.467,0,0,0-1.073-.4H5.488a1.468,1.468,0,0,0-1.074.4A1.35,1.35,0,0,0,4,223.44v11.116a1.352,1.352,0,0,0,.417,1.031,1.472,1.472,0,0,0,1.074.4H20.518a1.472,1.472,0,0,0,1.074-.4,1.352,1.352,0,0,0,.417-1.031V223.44A1.957,1.957,0,0,0,21.651,222.409Zm-0.835,12.147a0.3,0.3,0,0,1-.119.229,0.461,0.461,0,0,1-.239.114H5.369a0.315,0.315,0,0,1-.239-0.114,0.431,0.431,0,0,1-.119-0.229V223.44a0.816,0.816,0,0,1,.119-0.229,0.241,0.241,0,0,1,.239-0.115H20.458a0.315,0.315,0,0,1,.239.115,0.428,0.428,0,0,1,.119.229v11.116Zm-9.96-4.069-1.491-1.432-3.042,2.922v1.776h13.3v-4.068L15.687,225.9l-4.831,4.583h0Zm-2.743-2.635a1.89,1.89,0,0,0,1.312-.516,1.748,1.748,0,0,0,0-2.521,1.7,1.7,0,0,0-1.312-.516,1.89,1.89,0,0,0-1.312.516,1.653,1.653,0,0,0-.537,1.261,1.742,1.742,0,0,0,.537,1.26,1.89,1.89,0,0,0,1.312.516h0Z"/>
  <path id="形状_1_拷贝" data-name="形状 1 拷贝" class="cls-3" d="M47.651,222.409a1.467,1.467,0,0,0-1.074-.4H31.488a1.468,1.468,0,0,0-1.074.4A1.35,1.35,0,0,0,30,223.44v11.116a1.352,1.352,0,0,0,.418,1.031,1.472,1.472,0,0,0,1.074.4H46.518a1.472,1.472,0,0,0,1.074-.4,1.352,1.352,0,0,0,.417-1.031V223.44A1.957,1.957,0,0,0,47.651,222.409Zm-0.835,12.147a0.3,0.3,0,0,1-.119.229,0.461,0.461,0,0,1-.239.114H31.369a0.315,0.315,0,0,1-.239-0.114,0.431,0.431,0,0,1-.119-0.229V223.44a0.816,0.816,0,0,1,.119-0.229,0.241,0.241,0,0,1,.239-0.115H46.458a0.315,0.315,0,0,1,.239.115,0.428,0.428,0,0,1,.119.229v11.116Zm-9.96-4.069-1.491-1.432-3.042,2.922v1.776h13.3v-4.068L41.687,225.9l-4.831,4.583h0Zm-2.743-2.635a1.89,1.89,0,0,0,1.312-.516,1.749,1.749,0,0,0,0-2.521,1.7,1.7,0,0,0-1.312-.516,1.889,1.889,0,0,0-1.312.516,1.653,1.653,0,0,0-.537,1.261,1.742,1.742,0,0,0,.537,1.26,1.889,1.889,0,0,0,1.312.516h0Z"/>
  <path id="素材天下网_www.sucaitianxia.com-_副本" data-name="素材天下网 www.sucaitianxia.com- 副本" class="cls-1" d="M6.4,23H19.6A4.388,4.388,0,0,0,24,18.625V7.25h0V5.937H20.48V2H2V18.625A4.388,4.388,0,0,0,6.4,23ZM22.68,7.25V17.312a4.338,4.338,0,0,1-1.1,2.884,4.33,4.33,0,0,1-1.1-2.884V7.25h2.2ZM3.32,3.312H19.16V18.625a4.331,4.331,0,0,0,.924,2.675,4.4,4.4,0,0,1-1.8.388H7.72a4.388,4.388,0,0,1-4.4-4.375v-14ZM17.4,16H13v1.313h4.4V16Zm0-2.187H13v1.312h4.4V13.812Zm0-2.187H13v1.313h4.4V11.625Zm0-5.688H5.52v1.75H17.4V5.937Zm0,3.5H13V10.75h4.4V9.437Zm-5.72,0H5.52v7.875h6.16V9.437Z"/>
  <path id="flag-2" data-name="flag" class="cls-1" d="M50,12.815a40.8,40.8,0,0,0-6.609-.739A5.783,5.783,0,0,1,39.158,10.6V21.5H37.395V2h1.763V3.2a5.783,5.783,0,0,0,4.234,1.479A40.76,40.76,0,0,1,50,5.422l-2.183,3.7Zm-19.227,7.8c0,1.217,3.835,2.2,7.537,2.2s7.537-.986,7.537-2.2c0-.87-1.962-1.619-4.431-1.977l0.108-1.242c4.12,0.444,7.1,1.716,7.1,3.219,0,1.872-4.617,3.389-10.312,3.389S28,22.483,28,20.611c0-1.492,2.937-2.756,7.012-3.209l0.108,1.243C32.691,19.009,30.775,19.751,30.775,20.611Z"/>
  <path id="friends_list" data-name="friends list" class="cls-1" d="M19.258,90.48c-0.081-.251-0.624-1.966-2.106-1.966h-3.12l0.31-1.178a5.713,5.713,0,0,0,3.408-1.85h3.769a1.556,1.556,0,0,1,1.358,1.151L24,90.48H19.258Zm-0.569-6.043a3.859,3.859,0,0,1-.534-0.041A7.662,7.662,0,0,0,19.27,80.38c0-3.136-1.375-3.663-2.493-4.952-3.035,1.021,6.1-3.026,6.1,4.4A4.411,4.411,0,0,1,18.688,84.437Zm-0.7-3.674a5.527,5.527,0,0,1-5.247,5.77,5.8,5.8,0,0,1,0-11.539A5.527,5.527,0,0,1,17.991,80.762Zm-6.108-4.2c-1.608.631,0.361,2.883-3.164,4.2a4.24,4.24,0,0,0,4.025,4.426,4.24,4.24,0,0,0,4.025-4.426C14.719,78.9,11.277,79.762,11.883,76.562ZM8.9,75.319c-1.173,1.3-2.7,2.249-2.7,5.061a9.537,9.537,0,0,0,1.14,4.555c-0.026,0-.051,0-0.077,0-2.313,0-4.188-2.564-4.188-5.107C3.079,72.811,12.306,76.077,8.9,75.319ZM4.666,85.486H7.724a4.474,4.474,0,0,0,3.469,2l0.213,1.024H8.68c-1.482,0-1.983,1.715-2.056,1.966H1.995l1.346-3.843A1.5,1.5,0,0,1,4.666,85.486Zm4.819,3.5h6.8a1.949,1.949,0,0,1,1.7,1.442L19.4,95.007H6.138l1.687-4.579A1.878,1.878,0,0,1,9.485,88.986Z"/>
  <path id="BOOK_2" data-name="BOOK 2" class="cls-1" d="M23.357,43.8l-9.949,4.117a1.033,1.033,0,0,1-.816,0L2.643,43.8A1.031,1.031,0,0,1,2,42.844V27.031a1.031,1.031,0,0,1,1.425-.953h0l0.009,0L13,30.04l9.564-3.957,0.009,0h0A1.031,1.031,0,0,1,24,27.031V42.844A1.031,1.031,0,0,1,23.357,43.8ZM11.969,31.846L4.062,28.574v13.58l7.906,3.272V31.846Zm9.969-3.272-7.906,3.272v13.58l7.906-3.272V28.574Zm-6.271,4.737,3.781-1.719h0A1.031,1.031,0,1,1,20.3,33.47h0L16.52,35.189h0A1.031,1.031,0,0,1,15.667,33.311Zm0,3.781h0l3.781-1.719h0a1.031,1.031,0,1,1,.854,1.877L16.52,38.97h0A1.031,1.031,0,0,1,15.667,37.093Zm0,3.781h0l3.781-1.719h0a1.031,1.031,0,1,1,.854,1.877h0L16.52,42.751h0A1.031,1.031,0,0,1,15.667,40.874ZM6.125,31.5a1.029,1.029,0,0,1,.427.093h0l3.781,1.719h0a1.031,1.031,0,1,1-.853,1.878h0L5.7,33.47h0A1.031,1.031,0,0,1,6.125,31.5Zm0,3.781a1.025,1.025,0,0,1,.427.093h0l3.781,1.719h0a1.031,1.031,0,1,1-.853,1.877h0L5.7,37.251h0A1.031,1.031,0,0,1,6.125,35.281Zm0,3.781a1.027,1.027,0,0,1,.427.093h0l3.781,1.719h0a1.031,1.031,0,0,1-.853,1.878h0L5.7,41.033h0A1.031,1.031,0,0,1,6.125,39.063Z"/>
  <path id="BAR_GRAPH" data-name="BAR GRAPH" class="cls-1" d="M22.969,119H3.031A1.073,1.073,0,0,1,2,117.889V100.111A1.073,1.073,0,0,1,3.031,99a1.073,1.073,0,0,1,1.031,1.111v14.074h0v2.593H22.969A1.114,1.114,0,0,1,22.969,119Zm-2.406-3.333H18.5a1.074,1.074,0,0,1-1.031-1.111v-7.778a1.073,1.073,0,0,1,1.031-1.111h2.063a1.073,1.073,0,0,1,1.031,1.111v7.778A1.074,1.074,0,0,1,20.563,115.667Zm-5.844,0H12.656a1.074,1.074,0,0,1-1.031-1.111V102.333a1.074,1.074,0,0,1,1.031-1.111h2.063a1.074,1.074,0,0,1,1.031,1.111v12.223A1.074,1.074,0,0,1,14.719,115.667Zm-5.844,0H6.812a1.074,1.074,0,0,1-1.031-1.111v-2.223a1.074,1.074,0,0,1,1.031-1.111H8.875a1.074,1.074,0,0,1,1.031,1.111v2.223A1.074,1.074,0,0,1,8.875,115.667Z"/>
  <path id="hot" class="cls-1" d="M14.431,122c-0.813.527-3.627,9.777,0.6,9.7,0.437,0,3.532-.432,1.348-5.649C20.746,126.308,27.711,144,13.607,144c-15.04,0-8.2-15.057-7.136-14.994-0.187.891-.888,5.568,1.046,4.741,2.644-.827-0.52-4.359,1.6-8.176A6.64,6.64,0,0,1,14.431,122ZM11.181,134.84H9.831V137.1H8.067V134.84H6.744v5.879H8.067v-2.67H9.831v2.67h1.351V134.84Zm4.557,0.906a2.354,2.354,0,0,0-1.832-.733,2.343,2.343,0,0,0-1.832.736,3.342,3.342,0,0,0,0,4,2.338,2.338,0,0,0,1.832.739,2.357,2.357,0,0,0,1.832-.731A3.344,3.344,0,0,0,15.738,135.746Zm-0.758,2.8a1.738,1.738,0,0,1-.256.535,0.97,0.97,0,0,1-.371.312,1.022,1.022,0,0,1-.443.1,1.072,1.072,0,0,1-.436-0.093,0.977,0.977,0,0,1-.377-0.313,1.652,1.652,0,0,1-.256-0.535,3.427,3.427,0,0,1,.005-1.612A1.608,1.608,0,0,1,13.1,136.4a1.028,1.028,0,0,1,.374-0.309,1.085,1.085,0,0,1,.867.007,0.979,0.979,0,0,1,.376.309,1.661,1.661,0,0,1,.255.542A3.5,3.5,0,0,1,14.979,138.549Zm3.982,2.2V136.21h1.524v-1.342h-4.4v1.342h1.579v4.537h1.3Z"/>
  <path id="gps_" data-name="gps " class="cls-1" d="M13,186.127l-7.006,2.862L13,173.015l7.006,15.974Zm-0.055-10.255L8.107,186.9l4.838-1.977v-9.054Z"/>
  <path id="搜索" class="cls-1" d="M20.756,163.572l-3.548-3.553a0.82,0.82,0,0,0-.26-0.176,6.7,6.7,0,1,0-1.1,1.1,0.838,0.838,0,0,0,.176.259l3.548,3.553a0.837,0.837,0,1,0,1.184-1.183h0Zm-9.061-2.858a5.021,5.021,0,1,1,5.021-5.021,5.021,5.021,0,0,1-5.021,5.021h0Z"/>
</svg>
