<svg xmlns="http://www.w3.org/2000/svg" xmlns:xlink="http://www.w3.org/1999/xlink" width="24" height="24" viewBox="0 0 24 24">
  <metadata><?xpacket begin="﻿" id="W5M0MpCehiHzreSzNTczkc9d"?>
<x:xmpmeta xmlns:x="adobe:ns:meta/" x:xmptk="Adobe XMP Core 5.6-c140 79.160451, 2017/05/06-01:08:21        ">
   <rdf:RDF xmlns:rdf="http://www.w3.org/1999/02/22-rdf-syntax-ns#">
      <rdf:Description rdf:about=""/>
   </rdf:RDF>
</x:xmpmeta>
                                                                                                    
                                                                                                    
                                                                                                    
                                                                                                    
                                                                                                    
                                                                                                    
                                                                                                    
                                                                                                    
                                                                                                    
                                                                                                    
                                                                                                    
                                                                                                    
                                                                                                    
                                                                                                    
                                                                                                    
                                                                                                    
                                                                                                    
                                                                                                    
                                                                                                    
                                                                                                    
                           
<?xpacket end="w"?></metadata>
<defs>
    <style>
      .cls-1 {
        fill: #00fffd;
        fill-rule: evenodd;
        opacity: 0.95;
        filter: url(#filter);
      }
    </style>
    <filter id="filter" x="116" y="618" width="21" height="20" filterUnits="userSpaceOnUse">
      <feFlood result="flood" flood-color="#a1d859"/>
      <feComposite result="composite" operator="in" in2="SourceGraphic"/>
      <feBlend result="blend" in2="SourceGraphic"/>
    </filter>
  </defs>
  <path id="Messages_副本_2" data-name="Messages 副本 2" class="cls-1" d="M120.841,638a0.775,0.775,0,0,1-.372-0.1,0.833,0.833,0,0,1-.423-0.752l-0.01-3.317h-1.617a2.245,2.245,0,0,1-2.424-2.5V620.5a2.264,2.264,0,0,1,2.424-2.5h15.356c1.521,0,3.234.8,3.234,2.363v10.8c0,1.6-1.713,2.663-3.234,2.663H126.5l-5.2,4.01A0.773,0.773,0,0,1,120.841,638ZM119.632,623h13.739a0.416,0.416,0,0,1,0,.832H119.632A0.416,0.416,0,0,1,119.632,623Zm0,2.5h13.739a0.417,0.417,0,0,1,0,.833H119.632A0.417,0.417,0,0,1,119.632,625.5Zm0,2.5h13.739a0.417,0.417,0,0,1,0,.833H119.632A0.417,0.417,0,0,1,119.632,628Z" transform="translate(-114.5 -616)"/>
</svg>
